<svg xmlns="http://www.w3.org/2000/svg" width="25.356" height="26.719" viewBox="0 0 25.356 26.719">
    <path id="prefix__bx-book-bookmark" d="M25.539 2.01H7.226A4.018 4.018 0 0 0 3 6.018v18.7a4.018 4.018 0 0 0 4.226 4.008h21.13v-2.669H7.243c-.651-.016-1.426-.261-1.426-1.336a1.913 1.913 0 0 1 .034-.365 1.281 1.281 0 0 1 1.39-.971h19.706c.025 0 .044-.012.069-.013h1.34V4.682a2.75 2.75 0 0 0-2.817-2.672zm0 18.7H5.817V6.018a1.261 1.261 0 0 1 1.409-1.336h9.861v9.352L19.9 12.7l2.817 1.336V4.682h2.817v16.031z" transform="translate(-3 -2.01)" style="fill:#24268c"/>
</svg>
