<svg xmlns="http://www.w3.org/2000/svg" width="21.307" height="14.915" viewBox="0 0 21.307 14.915">
    <defs>
        <style>
            .prefix__cls-1{fill:#24268c}
        </style>
    </defs>
    <g id="prefix__bx-cloud-download">
        <path id="prefix__Trazado_15" d="M18.051 6.512A7.468 7.468 0 0 0 10.654 0 7.182 7.182 0 0 0 4 4.421a5.59 5.59 0 0 0-4 5.167 5.333 5.333 0 0 0 5.327 5.327h1.065v-2.131H5.327a3.2 3.2 0 0 1-3.2-3.2 3.467 3.467 0 0 1 2.851-3.209l.622-.109.2-.594a5.041 5.041 0 0 1 4.852-3.541 5.333 5.333 0 0 1 5.328 5.327v1.065h1.065a2.131 2.131 0 0 1 0 4.261h-2.13v2.131h2.131a4.262 4.262 0 0 0 1.006-8.4z" class="prefix__cls-1" data-name="Trazado 15"/>
        <path id="prefix__Trazado_16" d="M5.327 4.261V0H3.2v4.261H0l4.261 5.327 4.262-5.327z" class="prefix__cls-1" data-name="Trazado 16" transform="translate(6.392 5.327)"/>
    </g>
</svg>
