<svg xmlns="http://www.w3.org/2000/svg" width="13.839" height="17.983" viewBox="0 0 13.839 17.983">
    <path id="prefix__bxl-pinterest-alt" d="M0 6.451a5.994 5.994 0 0 1 .4-2.2 5.624 5.624 0 0 1 1.12-1.8 7.612 7.612 0 0 1 1.647-1.327 7.5 7.5 0 0 1 2-.843A8.558 8.558 0 0 1 7.351 0a7.15 7.15 0 0 1 3.18.72 6.017 6.017 0 0 1 2.389 2.093 5.439 5.439 0 0 1 .918 3.1 9.851 9.851 0 0 1-.207 2.03 8.275 8.275 0 0 1-.646 1.912 6.6 6.6 0 0 1-1.081 1.616 4.721 4.721 0 0 1-1.567 1.113A4.96 4.96 0 0 1 8.295 13a3.351 3.351 0 0 1-1.458-.346 2.152 2.152 0 0 1-1.035-.95c-.073.281-.173.687-.306 1.217s-.214.871-.252 1.026-.114.411-.222.766a5.181 5.181 0 0 1-.281.769l-.344.673A7.967 7.967 0 0 1 3.9 17c-.181.262-.4.575-.672.935l-.149.053-.1-.108q-.16-1.7-.162-2.034a12.147 12.147 0 0 1 .235-2.232q.229-1.237.72-3.107t.561-2.195a4.165 4.165 0 0 1-.345-1.826A2.857 2.857 0 0 1 4.55 4.8a1.692 1.692 0 0 1 1.426-.788A1.264 1.264 0 0 1 7 4.446a1.656 1.656 0 0 1 .366 1.108 6.818 6.818 0 0 1-.476 2.065 6.8 6.8 0 0 0-.472 2.021 1.468 1.468 0 0 0 .482 1.128 1.679 1.679 0 0 0 1.178.449 2.313 2.313 0 0 0 1.1-.271 2.456 2.456 0 0 0 .848-.732 6.121 6.121 0 0 0 .606-1.028 5.813 5.813 0 0 0 .411-1.2 12 12 0 0 0 .216-1.2 8.372 8.372 0 0 0 .07-1.076 3.688 3.688 0 0 0-1.176-2.91 4.5 4.5 0 0 0-3.086-1.04 4.981 4.981 0 0 0-3.609 1.4 4.726 4.726 0 0 0-1.45 3.551 3.108 3.108 0 0 0 .139.918 3.143 3.143 0 0 0 .291.7l.291.492a.821.821 0 0 1 .137.33 2.659 2.659 0 0 1-.16.789c-.111.325-.242.487-.4.487a1.7 1.7 0 0 1-.185-.034 2.209 2.209 0 0 1-.978-.6 3.167 3.167 0 0 1-.659-1.022A6.976 6.976 0 0 1 .132 7.6 4.9 4.9 0 0 1 0 6.451z" style="fill:#24268c"/>
</svg>
