<svg xmlns="http://www.w3.org/2000/svg" width="129.494" height="129.494" viewBox="0 0 129.494 129.494">
    <defs>
        <style>
            .prefix__cls-1{fill:#24268c}
        </style>
    </defs>
    <g id="prefix__discussion" transform="translate(-1 -1)">
        <path id="prefix__Trazado_539" d="M84.544 35A7.994 7.994 0 0 0 70.9 29.343l-18.53 18.53a27.288 27.288 0 0 1-8.79 5.857 16.7 16.7 0 1 0-23.88 2.926A23 23 0 0 0 1 79.215v22.975h48.038V75.4a3.8 3.8 0 0 1 1.117-2.7L82.2 40.649A7.94 7.94 0 0 0 84.544 35zM32.329 60.418l1.878-.261c-.537 2.531-2.126 4.438-3.966 4.438-1.777 0-3.321-1.775-3.912-4.177zm-14.62-16.709A12.532 12.532 0 1 1 30.24 56.24a12.544 12.544 0 0 1-12.531-12.531zM79.25 37.7L47.2 69.743a7.94 7.94 0 0 0-2.339 5.657v22.613H15.62V72.949h-4.177v25.064H5.177v-18.8a18.823 18.823 0 0 1 16.9-18.7c.806 4.712 4.156 8.258 8.164 8.258 4.282 0 7.778-4.06 8.258-9.253a31.516 31.516 0 0 0 16.82-8.695l18.53-18.53A3.819 3.819 0 0 1 80.367 35a3.8 3.8 0 0 1-1.117 2.7z" class="prefix__cls-1" data-name="Trazado 539" transform="translate(0 28.304)"/>
        <path id="prefix__Trazado_540" d="M83.16 56.706A16.7 16.7 0 1 0 69.02 60a16.221 16.221 0 0 0-5.384 8.25l-2.991 10.965H40.31a7.31 7.31 0 0 0 0 14.62h19.842v8.354h35.506V72.54A16.313 16.313 0 0 0 83.16 56.706zm-23.008-13A12.532 12.532 0 1 1 72.684 56.24a12.544 12.544 0 0 1-12.532-12.531zm31.329 54.3H64.329v-4.171h1.75A8.34 8.34 0 0 0 74 88.123l6.926-20.78-3.96-1.322L70.044 86.8a4.175 4.175 0 0 1-3.964 2.857H40.31a3.133 3.133 0 1 1 0-6.266h23.526l3.831-14.044a12.121 12.121 0 0 1 23.814 3.193z" class="prefix__cls-1" data-name="Trazado 540" transform="translate(34.835 28.304)"/>
        <path id="prefix__Trazado_541" d="M13 11h4.177v4.177H13z" class="prefix__cls-1" data-name="Trazado 541" transform="translate(13.063 10.886)"/>
        <path id="prefix__Trazado_542" d="M17 11h25.063v4.177H17z" class="prefix__cls-1" data-name="Trazado 542" transform="translate(17.418 10.886)"/>
        <path id="prefix__Trazado_543" d="M13 15h33.418v4.177H13z" class="prefix__cls-1" data-name="Trazado 543" transform="translate(13.063 15.241)"/>
        <path id="prefix__Trazado_544" d="M13 19h33.418v4.177H13z" class="prefix__cls-1" data-name="Trazado 544" transform="translate(13.063 19.595)"/>
        <path id="prefix__Trazado_545" d="M57 9h4.177v4.177H57z" class="prefix__cls-1" data-name="Trazado 545" transform="translate(60.962 8.709)"/>
        <path id="prefix__Trazado_546" d="M35 9h41.772v4.177H35z" class="prefix__cls-1" data-name="Trazado 546" transform="translate(37.013 8.709)"/>
        <path id="prefix__Trazado_547" d="M35 13h50.127v4.177H35z" class="prefix__cls-1" data-name="Trazado 547" transform="translate(37.013 13.063)"/>
        <path id="prefix__Trazado_548" d="M35 17h50.127v4.177H35z" class="prefix__cls-1" data-name="Trazado 548" transform="translate(37.013 17.418)"/>
        <path id="prefix__Trazado_549" d="M111.342 1h-45.95a10.455 10.455 0 0 0-10.443 10.443v2.089H17.354A8.363 8.363 0 0 0 9 21.886v20.886a8.363 8.363 0 0 0 8.354 8.354h18.8V61.3L51.4 51.127h3.544a8.389 8.389 0 0 0 7.46-4.664 10.309 10.309 0 0 0 2.983.487h5.633l15.258 10.169v-10.17h25.063a10.455 10.455 0 0 0 10.443-10.443V11.443A10.455 10.455 0 0 0 111.342 1zM54.949 46.949h-4.81l-9.81 6.539v-6.539H17.354a4.181 4.181 0 0 1-4.177-4.177V21.886a4.181 4.181 0 0 1 4.177-4.177h37.595v18.8a10.376 10.376 0 0 0 3.789 7.981 4.19 4.19 0 0 1-3.789 2.459zm62.658-10.443a6.273 6.273 0 0 1-6.266 6.266H82.1v6.539l-9.81-6.539h-6.9a6.273 6.273 0 0 1-6.266-6.266V11.443a6.273 6.273 0 0 1 6.266-6.266h45.949a6.273 6.273 0 0 1 6.266 6.266z" class="prefix__cls-1" data-name="Trazado 549" transform="translate(8.709)"/>
        <path id="prefix__Trazado_550" d="M35 5h4.177v4.177H35z" class="prefix__cls-1" data-name="Trazado 550" transform="translate(37.013 4.354)"/>
        <path id="prefix__Trazado_551" d="M39 5h4.177v4.177H39z" class="prefix__cls-1" data-name="Trazado 551" transform="translate(41.367 4.354)"/>
        <path id="prefix__Trazado_552" d="M43 5h33.418v4.177H43z" class="prefix__cls-1" data-name="Trazado 552" transform="translate(45.722 4.354)"/>
    </g>
</svg>
