<svg xmlns="http://www.w3.org/2000/svg" width="49" height="49" viewBox="0 0 49 49">
    <defs>
        <style>
            .prefix__cls-1{fill:#24268c}
        </style>
    </defs>
    <g id="prefix__strategy" transform="translate(-12.426)">
        <path id="prefix__Trazado_613" d="M38.063 45.846H17.77a.412.412 0 0 1-.421-.4v-5.02h.851a2.44 2.44 0 1 0 0-4.873h-.854V30.86h.854a2.44 2.44 0 1 0 0-4.873h-.854v-4.693h.854a2.44 2.44 0 1 0 0-4.873h-.854v-4.693h.854a2.5 2.5 0 0 0 2.561-2.437A2.5 2.5 0 0 0 18.2 6.855h-.854V1.837a.412.412 0 0 1 .421-.4h5.3a.737.737 0 0 0 .763-.719.737.737 0 0 0-.755-.718h-5.3a1.887 1.887 0 0 0-1.93 1.837v5.018h-.853a2.5 2.5 0 0 0-2.561 2.437 2.5 2.5 0 0 0 2.561 2.437h.853v4.693h-.853a2.44 2.44 0 1 0 0 4.873h.853v4.693h-.853a2.44 2.44 0 1 0 0 4.873h.853v4.693h-.853a2.44 2.44 0 1 0 0 4.873h.853v5.018a1.887 1.887 0 0 0 1.93 1.837h20.288a.719.719 0 1 0 0-1.435zM13.935 9.292a1.029 1.029 0 0 1 1.052-1H18.2a1 1 0 1 1 0 2h-3.213a1.029 1.029 0 0 1-1.052-1zm0 9.566a1.029 1.029 0 0 1 1.052-1H18.2a1 1 0 1 1 0 2h-3.213a1.029 1.029 0 0 1-1.052-1zm0 9.566a1.029 1.029 0 0 1 1.052-1H18.2a1 1 0 1 1 0 2h-3.213a1.029 1.029 0 0 1-1.052-1zm0 9.566a1.029 1.029 0 0 1 1.052-1H18.2a1 1 0 1 1 0 2h-3.213a1.029 1.029 0 0 1-1.052-1z" class="prefix__cls-1" data-name="Trazado 613"/>
        <path id="prefix__Trazado_614" d="M141.549 1.436h20.375a3.572 3.572 0 0 1 3.654 3.476v12.793a.755.755 0 0 0 1.509 0V4.912A5.048 5.048 0 0 0 161.924 0h-20.375a.737.737 0 0 0-.754.718.737.737 0 0 0 .754.718z" class="prefix__cls-1" data-name="Trazado 614" transform="translate(-115.457)"/>
        <path id="prefix__Trazado_615" d="M308.532 228.028v-.446a2 2 0 0 0-1.363-1.866l-.247-5.705a.755.755 0 0 0-1.508.059l.272 6.269a.739.739 0 0 0 .754.688.571.571 0 0 1 .584.555v.443h-13.359v-.443a.571.571 0 0 1 .584-.555.739.739 0 0 0 .754-.688l.529-12.205h9.625l.13 3a.755.755 0 0 0 1.508-.059l-.127-2.939h1.7a.741.741 0 0 0 .751-.652l.762-7.871a.7.7 0 0 0-.194-.55.772.772 0 0 0-.557-.234h-3.23a.737.737 0 0 0-.754.718v1.728h-1.405l-.226-1.812a.742.742 0 0 0-.749-.633h-4.832a.742.742 0 0 0-.749.633l-.226 1.812h-1.405v-1.728a.737.737 0 0 0-.754-.718h-3.238a.772.772 0 0 0-.557.234.7.7 0 0 0-.194.55l.762 7.871a.741.741 0 0 0 .751.652h1.7l-.5 11.583a2 2 0 0 0-1.363 1.866v.446a2.429 2.429 0 0 0-2.363 2.368v3.111a.737.737 0 0 0 .754.718h19.592a.737.737 0 0 0 .754-.718v-3.11a2.43 2.43 0 0 0-2.366-2.372zm-16.15-21.766h1.657v1.728a.737.737 0 0 0 .754.718h2.83a.742.742 0 0 0 .749-.633l.226-1.812h3.492l.226 1.812a.742.742 0 0 0 .749.633h2.83a.737.737 0 0 0 .754-.718v-1.728h1.657l-.623 6.435h-14.678zm17 26.526H291.3V230.4a.961.961 0 0 1 .983-.936H308.4a.961.961 0 0 1 .983.936v2.393z" class="prefix__cls-1" data-name="Trazado 615" transform="translate(-249.469 -185.224)"/>
        <path id="prefix__Trazado_616" d="M158.3 62.865a3.307 3.307 0 1 0-3.3 3.143 3.23 3.23 0 0 0 3.3-3.143zm-5.1 0a1.8 1.8 0 1 1 1.8 1.707 1.755 1.755 0 0 1-1.8-1.707z" class="prefix__cls-1" data-name="Trazado 616" transform="translate(-125.258 -54.006)"/>
        <path id="prefix__Trazado_617" d="M181.859 225.9a.717.717 0 0 0-.559.864c.122.486.269.972.439 1.445a.753.753 0 0 0 .714.486.79.79 0 0 0 .244-.039.71.71 0 0 0 .469-.912 13.7 13.7 0 0 1-.4-1.312.757.757 0 0 0-.907-.532z" class="prefix__cls-1" data-name="Trazado 617" transform="translate(-151.869 -204.265)"/>
        <path id="prefix__Trazado_618" d="M177.786 181.222a.737.737 0 0 0-.754.718v.79c0 .225.005.452.015.676a.739.739 0 0 0 .753.687h.033a.733.733 0 0 0 .722-.748c-.009-.2-.014-.411-.014-.615v-.79a.737.737 0 0 0-.755-.718z" class="prefix__cls-1" data-name="Trazado 618" transform="translate(-148.049 -163.878)"/>
        <path id="prefix__Trazado_619" d="M264.4 329.526c-.442-.168-.882-.359-1.306-.568a.773.773 0 0 0-1.016.309.7.7 0 0 0 .324.967c.467.229.951.44 1.438.625a.786.786 0 0 0 .28.051.756.756 0 0 0 .7-.451.707.707 0 0 0-.42-.933z" class="prefix__cls-1" data-name="Trazado 619" transform="translate(-224.461 -297.403)"/>
        <path id="prefix__Trazado_620" d="M200 269.055c-.276-.37-.537-.757-.775-1.15a.776.776 0 0 0-1.03-.264.7.7 0 0 0-.278.98c.262.433.548.858.852 1.266a.766.766 0 0 0 .616.3.778.778 0 0 0 .436-.133.7.7 0 0 0 .179-.999z" class="prefix__cls-1" data-name="Trazado 620" transform="translate(-166.747 -241.94)"/>
        <path id="prefix__Trazado_621" d="M226.919 305.047a.781.781 0 0 0 1.059-.119.7.7 0 0 0-.125-1.008c-.374-.281-.739-.583-1.084-.9a.782.782 0 0 0-1.067.023.693.693 0 0 0 .024 1.015c.38.348.781.68 1.193.989z" class="prefix__cls-1" data-name="Trazado 621" transform="translate(-191.636 -273.843)"/>
        <path id="prefix__Trazado_622" d="M151.035 153.7a.694.694 0 0 0-.057-1.014l-3.439-2.94-.013-.01-.027-.021-.03-.021-.028-.018-.033-.019-.029-.015-.034-.016-.031-.013-.036-.012-.032-.01-.038-.009-.031-.007-.045-.007h-.025a.789.789 0 0 0-.146 0h-.025l-.046.007-.03.007-.039.01-.031.01-.037.013-.03.012-.035.016-.028.015-.033.019-.027.018-.03.022-.027.021-.013.01-3.439 2.94a.694.694 0 0 0-.057 1.014.782.782 0 0 0 1.065.054l2.935-2.509 2.935 2.509a.781.781 0 0 0 1.066-.056z" class="prefix__cls-1" data-name="Trazado 622" transform="translate(-117.298 -135.249)"/>
        <path id="prefix__Trazado_623" d="M159.227 368.96a.782.782 0 0 0-1.067 0l-1.871 1.78-1.871-1.78a.782.782 0 0 0-1.067 0 .693.693 0 0 0 0 1.015l1.871 1.78-1.871 1.78a.693.693 0 0 0 0 1.015.782.782 0 0 0 1.067 0l1.871-1.78 1.871 1.78a.782.782 0 0 0 1.067 0 .693.693 0 0 0 0-1.015l-1.871-1.78 1.871-1.78a.693.693 0 0 0 0-1.015z" class="prefix__cls-1" data-name="Trazado 623" transform="translate(-126.552 -333.459)"/>
    </g>
</svg>
