<svg xmlns="http://www.w3.org/2000/svg" id="prefix__bx-group" width="23.22" height="23.428" viewBox="0 0 23.22 23.428">
    <defs>
        <style>
            .prefix__cls-1{fill:#24268c}
        </style>
    </defs>
    <path id="prefix__Trazado_223" d="M17.382 14.316a9.07 9.07 0 0 0 .918-4.867 8.778 8.778 0 0 0-3.426-6.281l-1.35 2.357a5.913 5.913 0 0 1 2.344 4.207 5.728 5.728 0 0 1-1.31 4.224L13.1 15.643l1.977.672c5.172 1.754 5.232 7.775 5.232 7.836h2.444c.001-2.53-1.167-7.476-5.371-9.835z" class="prefix__cls-1" data-name="Trazado 223" transform="translate(.466 -3.168)"/>
    <path id="prefix__Trazado_224" d="M11.166 15.205c2.7 0 4.888-2.513 4.888-5.6S13.862 4 11.166 4 6.277 6.513 6.277 9.6s2.193 5.605 4.889 5.605zm0-8.4A2.644 2.644 0 0 1 13.61 9.6a2.644 2.644 0 0 1-2.444 2.8 2.644 2.644 0 0 1-2.444-2.8 2.644 2.644 0 0 1 2.444-2.8zM13 16.606H9.333C5.289 16.606 2 20.375 2 25.01v1.4h2.444v-1.4c0-3.09 2.192-5.6 4.888-5.6H13c2.7 0 4.888 2.513 4.888 5.6v1.4h2.444v-1.4c0-4.635-3.289-8.404-7.332-8.404z" class="prefix__cls-1" data-name="Trazado 224" transform="translate(-2 -2.983)"/>
</svg>
