<svg xmlns="http://www.w3.org/2000/svg" width="25.422" height="25.422" viewBox="0 0 25.422 25.422">
    <path id="prefix__bx-home" d="M3.271 15.982h1.271v8.9a2.545 2.545 0 0 0 2.542 2.542h15.254a2.545 2.545 0 0 0 2.542-2.544v-8.9h1.271a1.271 1.271 0 0 0 .9-2.17L15.61 2.373a1.27 1.27 0 0 0-1.8 0L2.372 13.812a1.271 1.271 0 0 0 .9 2.17zm8.9 8.9v-6.358h5.084v6.356zm2.54-19.813l7.627 7.631v12.18H19.8v-6.356a2.545 2.545 0 0 0-2.542-2.542h-5.089a2.545 2.545 0 0 0-2.542 2.542v6.356H7.084V12.7z" transform="translate(-2 -2)" style="fill:#24268c"/>
</svg>
