<svg xmlns="http://www.w3.org/2000/svg" width="22.652" height="21.306" viewBox="0 0 22.652 21.306">
    <path id="prefix__bxl-whatsapp" d="M22.352 6.1A11.6 11.6 0 0 0 14.374 3C8.157 3 3.1 7.736 3.094 13.558A10.042 10.042 0 0 0 4.6 18.836L3 24.306l5.979-1.469a11.9 11.9 0 0 0 5.39 1.285h.005c6.215 0 11.276-4.736 11.278-10.558a10.169 10.169 0 0 0-3.3-7.468M14.374 22.34A9.845 9.845 0 0 1 9.6 21.116l-.342-.191-3.549.875.946-3.238-.222-.332A8.352 8.352 0 0 1 5 13.558c0-4.838 4.208-8.775 9.379-8.775A9.645 9.645 0 0 1 21 7.356a8.453 8.453 0 0 1 2.743 6.208c0 4.838-4.208 8.776-9.374 8.776m5.142-6.573c-.283-.133-1.667-.77-1.926-.859s-.445-.132-.633.132-.729.857-.893 1.034-.329.2-.611.066a7.826 7.826 0 0 1-2.266-1.309A8.048 8.048 0 0 1 11.619 13c-.165-.265-.018-.407.124-.539.127-.118.281-.308.422-.462a1.785 1.785 0 0 0 .281-.44.455.455 0 0 0-.024-.462c-.07-.133-.634-1.431-.869-1.959-.227-.512-.46-.443-.633-.45s-.352-.009-.539-.009a1.072 1.072 0 0 0-.753.329 2.882 2.882 0 0 0-.986 2.2 4.974 4.974 0 0 0 1.151 2.73 12.277 12.277 0 0 0 4.814 3.983c.673.272 1.2.434 1.607.556a4.127 4.127 0 0 0 1.775.1 2.9 2.9 0 0 0 1.9-1.254 2.076 2.076 0 0 0 .165-1.255c-.07-.111-.26-.178-.54-.309" transform="translate(-3 -3)" style="fill:#fff;fill-rule:evenodd"/>
</svg>
