<svg xmlns="http://www.w3.org/2000/svg" width="17.063" height="13.859" viewBox="0 0 17.063 13.859">
    <path id="prefix__bxl-twitter" d="M15.31 3.454c.011.152.011.3.011.454a9.883 9.883 0 0 1-9.95 9.951A9.882 9.882 0 0 1 0 12.289a7.309 7.309 0 0 0 .845.043 7.006 7.006 0 0 0 4.342-1.494 3.5 3.5 0 0 1-3.271-2.425 4.454 4.454 0 0 0 .661.054 3.721 3.721 0 0 0 .923-.119A3.5 3.5 0 0 1 .7 4.916v-.044a3.529 3.529 0 0 0 1.58.444A3.5 3.5 0 0 1 1.19.639 9.948 9.948 0 0 0 8.4 4.3a3.974 3.974 0 0 1-.087-.8 3.5 3.5 0 0 1 6.055-2.4 6.909 6.909 0 0 0 2.219-.84 3.491 3.491 0 0 1-1.537 1.927 7.01 7.01 0 0 0 2.014-.542 7.506 7.506 0 0 1-1.754 1.809z" style="fill:#24268c"/>
</svg>
