<svg xmlns="http://www.w3.org/2000/svg" width="129.271" height="129.271" viewBox="0 0 129.271 129.271">
    <path id="prefix__cooperation" d="M122.415 67.721a7.869 7.869 0 0 0-5.838 2.6L103.727 84.6a14.5 14.5 0 0 0-2.877-16.876h10.657a6.263 6.263 0 0 0 6.255-6.255v-14.6h-4.17a4.17 4.17 0 1 1 0-8.34h4.17v-14.6a6.263 6.263 0 0 0-6.255-6.255H99a8.34 8.34 0 0 0-16.68 0H69.806a6.263 6.263 0 0 0-6.255 6.255v2.091H42.469a14.592 14.592 0 1 0-18.482 1.574A22.953 22.953 0 0 0 9.34 48.956v68.806H1v12.51h62.551v-25.02h-8.34V83.477l19.189 20.79a6.24 6.24 0 0 1 1.66 4.243v21.761h29.19V108.51a6.231 6.231 0 0 1 1.658-4.241l21.278-23.048a7.825 7.825 0 0 0 2.085-5.331v-.313a7.864 7.864 0 0 0-7.856-7.856zm-21.334 10.425a10.425 10.425 0 1 1-10.425-10.425 10.437 10.437 0 0 1 10.425 10.425zM54.106 69.4a10.407 10.407 0 0 0-9.32-5.846h-4l1.464-19.09a4.187 4.187 0 0 1 4.158-3.849h24.916a4.159 4.159 0 0 1-3.6 6.255h-4.17v14.6a6.263 6.263 0 0 0 6.255 6.255h10.653A14.5 14.5 0 0 0 77.587 84.6L64.735 70.321a7.873 7.873 0 0 0-5.838-2.6 7.777 7.777 0 0 0-4.791 1.679zm13.615-45.465a2.086 2.086 0 0 1 2.085-2.085h16.68v-4.17a4.17 4.17 0 0 1 8.34 0v4.17h16.68a2.086 2.086 0 0 1 2.085 2.085V34.36a8.34 8.34 0 1 0 0 16.68v10.426a2.086 2.086 0 0 1-2.085 2.085h-41.7a2.086 2.086 0 0 1-2.085-2.085V51.041a8.27 8.27 0 0 0 7.894-10.951 7.289 7.289 0 0 0-2.681-14.07h-5.213zM21.85 15.6a10.425 10.425 0 1 1 10.425 10.42A10.437 10.437 0 0 1 21.85 15.6zm-8.34 62.5a10.317 10.317 0 0 0 6.255 2.139H25.8l-3.753 37.53H13.51zm21.128 2.139l3.574 25.02h-5.353l-4.17 12.51h-2.448l3.753-37.53zM59.381 126.1H5.17v-4.17h26.524l4.17-12.51h23.517zm-16.955-20.85l-3.657-25.61a4.193 4.193 0 0 0-4.13-3.58H19.765a6.263 6.263 0 0 1-6.255-6.255V48.956A18.785 18.785 0 0 1 32.275 30.19h40.658a3.128 3.128 0 0 1 0 6.255H46.408a8.377 8.377 0 0 0-8.315 7.7l-1.468 19.083a4.171 4.171 0 0 0 4.158 4.493h4a6.263 6.263 0 0 1 6.255 6.255v31.275zM126.1 75.89a3.661 3.661 0 0 1-.978 2.5l-21.28 23.054a10.407 10.407 0 0 0-2.763 7.068V126.1H80.231v-17.59a10.409 10.409 0 0 0-2.765-7.072L56.188 78.386a3.652 3.652 0 0 1-.978-2.5v-.313a3.685 3.685 0 0 1 6.424-2.467l13.319 14.8A14.623 14.623 0 0 0 85.8 92.741h9.71a14.612 14.612 0 0 0 10.846-4.831l13.321-14.8a3.685 3.685 0 0 1 6.424 2.467z" transform="translate(-1 -1)" style="fill:#24268c"/>
</svg>
