<svg xmlns="http://www.w3.org/2000/svg" width="49" height="49" viewBox="0 0 49 49">
    <defs>
        <style>
            .prefix__cls-1{fill:#24268c}
        </style>
    </defs>
    <g id="prefix__handshake" transform="translate(-.467 -.001)">
        <g id="prefix__Grupo_135" data-name="Grupo 135" transform="translate(24.222 23.064)">
            <g id="prefix__Grupo_134" data-name="Grupo 134">
                <path id="prefix__Trazado_611" d="M258.1 245.551l-6.665-4.088a.736.736 0 0 0-.269-.1L249.08 241a.718.718 0 1 0-.25 1.414l1.969.347 6.548 4.016a.718.718 0 1 0 .753-1.223z" class="prefix__cls-1" data-name="Trazado 611" transform="translate(-248.236 -240.986)"/>
            </g>
        </g>
        <g id="prefix__Grupo_137" data-name="Grupo 137" transform="translate(.467 .001)">
            <g id="prefix__Grupo_136" data-name="Grupo 136">
                <path id="prefix__Trazado_612" d="M49.273 27.858a.72.72 0 0 0-1.017-.034l-2.916 2.72-13.359-13.158L49.239 1.242a.718.718 0 1 0-.983-1.047l-17.8 16.654a.724.724 0 0 0-.013 1.035l1.182 1.164-.377.332-7.9-.679a.722.722 0 0 0-.36.062l-6.258 2.845-.055-.013-3.6-.634.291-.743a.717.717 0 0 0-.4-.928L1.453 14.7a.718.718 0 1 0-.534 1.333l10.844 4.33-6.39 16.3-3.947-1.4a.718.718 0 1 0-.48 1.353l4.6 1.627a.726.726 0 0 0 .91-.415l1.068-2.724 2.8 1.565-.309.5a3.016 3.016 0 0 0 3.5 4.45 3.018 3.018 0 0 0 3.917 2.412 3.019 3.019 0 0 0 3.917 2.413 3.02 3.02 0 0 0 5.556 1.128l.491-.794.4.248a3.017 3.017 0 0 0 4.155-.99 2.993 2.993 0 0 0 .44-1.759 2.988 2.988 0 0 0 .7.084 3.046 3.046 0 0 0 2.579-1.438 2.989 2.989 0 0 0 .442-1.759 2.988 2.988 0 0 0 .7.084 3.046 3.046 0 0 0 2.579-1.438 2.988 2.988 0 0 0 .441-1.76 3.014 3.014 0 0 0 2.283-5.5l-.493-.3 1.653-1.724 1.546 1.523a.727.727 0 0 0 1 .013l3.42-3.19a.717.717 0 0 0 .032-1.014zm-35.34 11.725a1.581 1.581 0 0 1-2.693-1.659l4.028-6.517a1.592 1.592 0 0 1 2.151-.531 1.631 1.631 0 0 1 .515 2.233zM17.85 42a1.581 1.581 0 0 1-2.693-1.659l3.222-5.213a1.592 1.592 0 0 1 2.151-.531 1.631 1.631 0 0 1 .515 2.233zm3.917 2.412a1.584 1.584 0 0 1-2.177.515 1.592 1.592 0 0 1-.516-2.173l2.417-3.91a1.592 1.592 0 0 1 2.151-.531 1.631 1.631 0 0 1 .515 2.233zm5.5-.15l-1.584 2.563a1.581 1.581 0 0 1-2.693-1.659l1.61-2.61a1.591 1.591 0 0 1 2.151-.531 1.631 1.631 0 0 1 .518 2.233zm13.1-12.776L36.8 29.3a.718.718 0 1 0-.753 1.223l5.311 3.258a1.58 1.58 0 1 1-1.657 2.691l-5.7-3.494a.718.718 0 1 0-.753 1.223l4.389 2.692a1.58 1.58 0 1 1-1.647 2.687l-3.978-2.44a.718.718 0 1 0-.753 1.223L33.93 40a1.58 1.58 0 1 1-1.657 2.691s-2.349-1.439-2.371-1.45a.718.718 0 0 0-.688 1.258l1 .613a1.58 1.58 0 0 1 .52 2.172 1.6 1.6 0 0 1-2.176.519l-.4-.246.338-.547a3.1 3.1 0 0 0 .368-2.363 2.964 2.964 0 0 0-1.375-1.86 3 3 0 0 0-1.729-.407 3.106 3.106 0 0 0-.007-1.449 2.964 2.964 0 0 0-1.375-1.86 3 3 0 0 0-1.729-.407 3.053 3.053 0 0 0-1.382-3.309 3 3 0 0 0-1.729-.407 3.011 3.011 0 0 0-5.489-2.3l-2.964 4.794-3.029-1.686 4.481-11.431 2.44.43a3.017 3.017 0 0 0 3.6 4.638l4.212-1.915a.718.718 0 1 0-.6-1.307l-4.212 1.915a1.58 1.58 0 1 1-1.312-2.875l6.74-3.064 8.017.689h.062a.721.721 0 0 0 .476-.18l.682-.6 9.606 9.46z" class="prefix__cls-1" data-name="Trazado 612" transform="translate(-.467 -.001)"/>
            </g>
        </g>
    </g>
</svg>
