<svg xmlns="http://www.w3.org/2000/svg" width="49" height="49" viewBox="0 0 49 49">
    <defs>
        <style>
            .prefix__cls-1{fill:#24268c}
        </style>
    </defs>
    <g id="prefix__wristwatch" transform="translate(-81.823)">
        <g id="prefix__Grupo_117" data-name="Grupo 117" transform="translate(81.823)">
            <path id="prefix__Trazado_589" d="M126.926 20.882h-1.006a14.015 14.015 0 0 0-4.13-5.766l-1.959-8.159a1.092 1.092 0 0 0-1.243-.589c-.567.075-.925.462-.832.85l1.442 6.006a30.529 30.529 0 0 0-30.013 0l2.83-11.788h24.352l.58 2.414c.1.422.724.7 1.346.572.514-.1.817-.467.731-.827L118.305.6a1.017 1.017 0 0 0-1.041-.6H91.119a1.017 1.017 0 0 0-1.041.6l-3.485 14.516c-2.987 2.587-4.77 5.847-4.77 9.384s1.783 6.8 4.77 9.384l1.959 8.159c.094.392.659.661 1.233.59s.934-.468.842-.852l-1.442-6a30.529 30.529 0 0 0 30.013 0l-2.83 11.788H92.016l-.572-2.384a1.082 1.082 0 0 0-1.186-.626c-.592.053-1 .429-.9.827l.724 3.016a1.017 1.017 0 0 0 1.041.6h26.145a1.017 1.017 0 0 0 1.041-.6l3.485-14.514a14.015 14.015 0 0 0 4.13-5.766h1.006c2.152 0 3.9-1.187 3.9-2.651v-1.938c0-1.464-1.745-2.651-3.9-2.651zm-22.735 17.4c-11.171 0-20.259-6.183-20.259-13.784s9.088-13.784 20.259-13.784S124.45 16.9 124.45 24.5s-9.088 13.784-20.259 13.784zm24.521-12.817c0 .67-.8 1.216-1.787 1.216h-.6a10.427 10.427 0 0 0 0-4.365h.6c.985 0 1.787.545 1.787 1.216z" class="prefix__cls-1" data-name="Trazado 589" transform="translate(-81.823)"/>
            <path id="prefix__Trazado_590" d="M224.3 466.111h2.842c.583 0 1.055-.321 1.055-.718s-.472-.718-1.055-.718H224.3c-.583 0-1.055.321-1.055.718s.473.718 1.055.718z" class="prefix__cls-1" data-name="Trazado 590" transform="translate(-203.353 -420.204)"/>
            <path id="prefix__Trazado_591" d="M224.3 425.7h2.842c.583 0 1.055-.321 1.055-.718s-.472-.718-1.055-.718H224.3c-.583 0-1.055.321-1.055.718s.473.718 1.055.718z" class="prefix__cls-1" data-name="Trazado 591" transform="translate(-203.353 -383.664)"/>
            <path id="prefix__Trazado_592" d="M126.762 123.24c-10.3 0-18.674 5.7-18.674 12.706s8.377 12.706 18.674 12.706 18.674-5.7 18.674-12.706-8.377-12.706-18.674-12.706zm0 23.976c-9.134 0-16.564-5.056-16.564-11.27s7.431-11.27 16.564-11.27 16.564 5.056 16.564 11.27-7.431 11.27-16.564 11.27z" class="prefix__cls-1" data-name="Trazado 592" transform="translate(-104.394 -111.446)"/>
            <path id="prefix__Trazado_593" d="M234.4 151.52c.583 0 1.055-.321 1.055-.718v-.58c0-.4-.472-.718-1.055-.718s-1.055.321-1.055.718v.58c.003.398.475.718 1.055.718z" class="prefix__cls-1" data-name="Trazado 593" transform="translate(-212.034 -135.196)"/>
            <path id="prefix__Trazado_594" d="M232.013 189.357a.844.844 0 0 0 .122-.43 1.083 1.083 0 0 0-.65-.91v-5.47c0-.4-.472-.718-1.055-.718s-1.055.321-1.055.718v5.47a1.083 1.083 0 0 0-.65.91c0 .584.635 1.066 1.46 1.147l3.31 3.9a1.214 1.214 0 0 0 .915.359 1.448 1.448 0 0 0 .527-.1c.5-.2.677-.637.386-.98z" class="prefix__cls-1" data-name="Trazado 594" transform="translate(-208.062 -164.427)"/>
            <path id="prefix__Trazado_595" d="M185.818 163.124a1.356 1.356 0 0 0-1.441-.263c-.5.2-.677.637-.386.98l.426.5a1.214 1.214 0 0 0 .915.359 1.448 1.448 0 0 0 .526-.1c.5-.2.677-.637.386-.98z" class="prefix__cls-1" data-name="Trazado 595" transform="translate(-169.498 -147.188)"/>
            <path id="prefix__Trazado_596" d="M149.934 199.387l-.738-.29a1.356 1.356 0 0 0-1.441.263c-.291.343-.118.782.386.981l.738.29a1.449 1.449 0 0 0 .527.1 1.214 1.214 0 0 0 .915-.359c.29-.348.118-.787-.387-.985z" class="prefix__cls-1" data-name="Trazado 596" transform="translate(-138.359 -179.956)"/>
            <path id="prefix__Trazado_597" d="M137.314 249.218c0-.4-.472-.718-1.055-.718h-.853c-.583 0-1.055.321-1.055.718s.472.718 1.055.718h.853c.583 0 1.055-.322 1.055-.718z" class="prefix__cls-1" data-name="Trazado 597" transform="translate(-126.963 -224.718)"/>
            <path id="prefix__Trazado_598" d="M148.879 295.063l-.738.29c-.5.2-.677.637-.386.981a1.214 1.214 0 0 0 .915.359 1.451 1.451 0 0 0 .527-.1l.738-.29c.5-.2.677-.637.386-.981a1.357 1.357 0 0 0-1.442-.259z" class="prefix__cls-1" data-name="Trazado 598" transform="translate(-138.359 -266.737)"/>
            <path id="prefix__Trazado_599" d="M185.858 329.079a1.356 1.356 0 0 0-1.441.263l-.426.5c-.291.343-.118.782.386.98a1.449 1.449 0 0 0 .526.1 1.214 1.214 0 0 0 .915-.359l.426-.5c.291-.347.118-.786-.386-.984z" class="prefix__cls-1" data-name="Trazado 599" transform="translate(-169.498 -297.498)"/>
            <path id="prefix__Trazado_600" d="M234.4 341.435c-.583 0-1.055.321-1.055.718v.58c0 .4.472.718 1.055.718s1.055-.321 1.055-.718v-.58c.003-.397-.469-.718-1.055-.718z" class="prefix__cls-1" data-name="Trazado 600" transform="translate(-212.034 -308.759)"/>
            <path id="prefix__Trazado_601" d="M281.783 329.342a1.356 1.356 0 0 0-1.441-.263c-.5.2-.677.637-.386.98l.426.5a1.214 1.214 0 0 0 .915.359 1.45 1.45 0 0 0 .526-.1c.5-.2.677-.637.386-.98z" class="prefix__cls-1" data-name="Trazado 601" transform="translate(-251.964 -297.498)"/>
            <path id="prefix__Trazado_602" d="M316.152 295.352l-.738-.29a1.356 1.356 0 0 0-1.441.263c-.291.343-.118.782.386.98l.738.29a1.448 1.448 0 0 0 .526.1 1.214 1.214 0 0 0 .915-.359c.291-.343.118-.782-.386-.98z" class="prefix__cls-1" data-name="Trazado 602" transform="translate(-281.196 -266.736)"/>
            <path id="prefix__Trazado_603" d="M328.189 248.5h-.853c-.583 0-1.055.321-1.055.718s.472.718 1.055.718h.853c.583 0 1.055-.321 1.055-.718s-.472-.718-1.055-.718z" class="prefix__cls-1" data-name="Trazado 603" transform="translate(-291.896 -224.718)"/>
            <path id="prefix__Trazado_604" d="M314.886 200.727a1.449 1.449 0 0 0 .526-.1l.738-.29c.5-.2.677-.637.386-.98a1.356 1.356 0 0 0-1.441-.263l-.738.29c-.5.2-.677.637-.386.98a1.214 1.214 0 0 0 .915.363z" class="prefix__cls-1" data-name="Trazado 604" transform="translate(-281.196 -179.956)"/>
            <path id="prefix__Trazado_605" d="M281.823 162.862a1.356 1.356 0 0 0-1.441.263l-.426.5c-.291.343-.118.782.386.98a1.449 1.449 0 0 0 .527.1 1.214 1.214 0 0 0 .915-.359l.426-.5c.29-.346.117-.786-.387-.984z" class="prefix__cls-1" data-name="Trazado 605" transform="translate(-251.964 -147.188)"/>
            <path id="prefix__Trazado_606" d="M227.143 32.325H224.3c-.583 0-1.055.321-1.055.718s.472.718 1.055.718h2.842c.583 0 1.055-.321 1.055-.718s-.472-.718-1.054-.718z" class="prefix__cls-1" data-name="Trazado 606" transform="translate(-203.353 -29.231)"/>
            <path id="prefix__Trazado_607" d="M227.143 72.732H224.3c-.583 0-1.055.321-1.055.718s.472.718 1.055.718h2.842c.583 0 1.055-.321 1.055-.718s-.472-.718-1.054-.718z" class="prefix__cls-1" data-name="Trazado 607" transform="translate(-203.353 -65.771)"/>
        </g>
    </g>
</svg>
